<svg width="24" height="24" viewBox="0 0 24 24" fill="none" xmlns="http://www.w3.org/2000/svg">
<path fill-rule="evenodd" clip-rule="evenodd" d="M24 12C24 5.3731 18.6268 0 12 0C5.3731 0 0 5.3731 0 12C0 17.989 4.38762 22.9537 10.1252 23.855V15.4696H7.07748V12H10.1252V9.35562C10.1252 6.34842 11.9173 4.68622 14.6579 4.68622C15.9707 4.68622 17.3443 4.92077 17.3443 4.92077V7.87398H15.8307C14.3406 7.87398 13.8748 8.79875 13.8748 9.7488V11.9999H17.2025L16.671 15.4695H13.8747V23.8548C19.6123 22.9553 23.9998 17.9907 23.9998 11.9999L24 12Z" fill="#1977F3"/>
<path fill-rule="evenodd" clip-rule="evenodd" d="M16.6716 15.4698L17.2032 12.0002H13.8755V9.74912C13.8755 8.80074 14.3395 7.87431 15.8313 7.87431H17.3451V4.92109C17.3451 4.92109 15.9715 4.68652 14.6585 4.68652C11.918 4.68652 10.1258 6.34709 10.1258 9.35594V12.0003H7.07812V15.4699H10.1258V23.8553C10.7367 23.9513 11.3628 24.0003 12.0007 24.0003C12.6385 24.0003 13.2646 23.9497 13.8755 23.8553V15.4699H16.6717L16.6716 15.4698Z" fill="#FEFEFE"/>
</svg>
