<svg xmlns="http://www.w3.org/2000/svg" version="1.1" viewBox="-5.0 -10.0 110.0 135.0">
 <g>
  <path d="m94.52 60.738 0.007813-0.003906c0.42188-0.24219 0.71094-0.66406 0.77344-1.1484 0.0625-0.48438-0.10156-0.96875-0.44531-1.3125-0.14844-0.14844-3.6641-3.582-10.48-3.582h-1.1719l2.4844-3.8359c0.16406-0.25 0.25-0.54688 0.25-0.84766v-2.6133c0-1.6289-0.42969-3.2383-1.2344-4.6484l-11.469-20.074c-0.42969-0.75-1.3828-1.0078-2.1328-0.58203-0.75 0.42969-1.0078 1.3828-0.58203 2.1328l11.469 20.074c0.53906 0.94531 0.82422 2.0156 0.82422 3.1016v0.96484l-3.4531-1.1484-1.3125-3.9453c-0.27344-0.82031-1.1562-1.2617-1.9766-0.98828-0.82031 0.27344-1.2617 1.1562-0.98828 1.9766l1.5625 4.6875c0.15625 0.46875 0.52344 0.83203 0.98828 0.98828l4.0586 1.3516-14.082 21.766c-0.79688 1.2266-2.1445 1.9648-3.6094 1.9648h-13.352l-6.0781-6.0781c-1.0547-1.9609-3.1289-3.2969-5.5078-3.2969-0.30469 0-0.60156 0.023437-0.89453 0.0625l-0.76562-0.67969 6.5156-3.9102 15.609 5.6758-1.0781 1.9766h-8.4453c-0.86328 0-1.5625 0.69922-1.5625 1.5625s0.69922 1.5625 1.5625 1.5625h9.375c0.57031 0 1.0977-0.3125 1.3711-0.8125l9.375-17.188c0.26562-0.48828 0.25391-1.0781-0.03125-1.5547l-4.4648-7.4414v-6.4141l6.9492-3.4766c0.77344-0.38672 1.0859-1.3242 0.69922-2.0938-0.38672-0.77344-1.3242-1.0859-2.0938-0.69922l-0.042969 0.023437-1.7109-4.2734c-0.46875-1.1797-1.375-2.0781-2.4844-2.5586l-0.79687-3.1797c-0.48828-1.9648-2.0156-3.4883-3.9766-3.9766l-2.793-0.69531v-1.9062c0-0.86328-0.69922-1.5625-1.5625-1.5625-0.86328 0-1.5625 0.69922-1.5625 1.5625v6.25c0 0.86328 0.69922 1.5625 1.5625 1.5625 0.86328 0 1.5625-0.69922 1.5625-1.5625v-1.125l2.0352 0.50781c0.83984 0.21094 1.4922 0.86328 1.7031 1.7031l0.50781 2.0352h-0.40234c-0.60547 0-1.2109 0.074219-1.8008 0.21875l-5.5508 1.3867c-0.83594 0.21094-1.3438 1.0586-1.1367 1.8945 0.21094 0.83594 1.0547 1.3477 1.8945 1.1367l5.5508-1.3867c0.33984-0.085937 0.69141-0.12891 1.0391-0.12891h1.8516c0.64063 0 1.2109 0.38281 1.4531 0.98438l1.8047 4.5156-1.5664 0.78125-1.2188-3.6484c-0.27344-0.82031-1.1562-1.2617-1.9766-0.98828-0.82031 0.27344-1.2617 1.1562-0.98828 1.9766l1.3594 4.0703-0.57422 0.28906c-0.53125 0.26562-0.86328 0.80469-0.86328 1.3984v7.3125l-5.1172 7.1641c-1.0547 1.4766-2.9336 2.1328-4.6797 1.6328l-17.883-5.1094s-0.050781-0.015625-0.070312-0.015625l-18.75-4.6875c-0.125-0.03125-0.25-0.046875-0.37891-0.046875h-5.4688l-4.2188-5.625c-0.51562-0.6875-1.4961-0.82812-2.1875-0.3125-0.6875 0.51562-0.82812 1.5-0.3125 2.1875l2.8125 3.75h-1.8047c-0.52344 0-1.0156 0.26562-1.3047 0.70312-0.28906 0.4375-0.33594 0.99219-0.13281 1.4766l2.9453 6.8398-5.5 5.5c-0.60938 0.60938-0.60938 1.6016 0 2.2109 0.30469 0.30469 0.70312 0.45703 1.1055 0.45703 0.40234 0 0.79687-0.15234 1.1055-0.45703l5.7266-5.7266 8.6172 0.85938-0.36719 2.207c-2.5078 0.09375-4.9062 0.84766-7.0117 2.1953-1.2344-0.48828-2.6172-0.42969-3.8125 0.16797l-0.10156 0.050781c-1.5977 0.79688-2.5938 2.4062-2.5938 4.1953v1.9102c0 0.71094 0.16406 1.3906 0.45312 2.0078-0.015624 0.039063-0.027343 0.082031-0.039062 0.125-0.27734 1.1133-0.41797 2.2578-0.41797 3.4062 0 7.7539 6.3086 14.062 14.062 14.062 4.3984 0 8.4609-2 11.145-5.4922 0.52344-0.68359 0.39844-1.6641-0.28516-2.1914-0.68359-0.52344-1.6641-0.39844-2.1914 0.28516-2.0898 2.7148-5.25 4.2734-8.668 4.2734-6.0312 0-10.938-4.9062-10.938-10.938 0-0.36719 0.023438-0.73438 0.0625-1.0938 0.10156 0.035157 0.20312 0.070313 0.3125 0.09375l2.7656 0.72656c-0.003906 0.09375-0.007812 0.17969-0.007812 0.27344 0 4.3086 3.5039 7.8125 7.8125 7.8125 2.9375 0 5.6016-1.6719 6.9297-4.2109l7.9062 2.0781c1.4297 0.375 2.8984 0.56641 4.375 0.56641h7.3516c0.86328 0 1.5625-0.69922 1.5625-1.5625 0-0.63281-0.37891-1.1797-0.92188-1.4219 0.25781-0.42188 0.46875-0.875 0.625-1.3516l3.8828 3.8828c0.29297 0.29297 0.69141 0.45703 1.1055 0.45703h14c2.5273 0 4.8594-1.2656 6.2305-3.3906l1.6523-2.5547c0.16406 7.6094 6.4062 13.758 14.055 13.758s14.062-6.3086 14.062-14.062c0-4.3984-2.0586-8.5-5.4805-11.141zm-42.676-4.1211c3.0117 0.85937 6.2578-0.27344 8.0781-2.8203l4.0234-5.6328 3 5-5.9141 10.836-16.43-5.9766-4.8672-4.8672 12.102 3.457zm-35.727 4.375-0.28125 1.6836-2.4609-1.0547c0.87891-0.32812 1.8008-0.53906 2.7422-0.62891zm1.0703 15.57c-2.3984 0-4.375-1.8086-4.6562-4.1328l8.4258 2.2188c-0.86719 1.1719-2.2578 1.9141-3.7695 1.9141zm-9.7734-8.7109c-0.6875-0.17969-1.1641-0.80469-1.1641-1.5117v-1.9102c0-0.59375 0.32812-1.1328 0.86719-1.3984l0.10156-0.050781c0.21875-0.10938 0.46094-0.16406 0.69922-0.16406 0.21094 0 0.41797 0.042969 0.61719 0.125l20.266 8.6875 2.5078 2.5078-23.891-6.2891zm19.824-0.28906-8.4453-3.6172 0.46875-2.8047c3.5664 0.6875 6.5625 3.125 7.9766 6.4258zm-7.4648-9.5078 0.35156-2.125 2.6484 0.26562 6.6562 5.9141-1.1484 1.1484c-2.0781-2.6719-5.0938-4.5625-8.5156-5.2031zm13.07 13.203-1.8047-1.8047c-0.21094-1.2148-0.57812-2.3711-1.0781-3.4531l1.8125-1.8125 3.2695 2.9062c-1.2148 1.0234-2.0352 2.5-2.1992 4.1641zm2.1172-8.4141-10.488-9.3203c-0.24609-0.21875-0.55469-0.35156-0.88281-0.38672l-14.711-1.4688-0.042968-0.10156h2.0977c0.86328 0 1.5625-0.69922 1.5625-1.5625 0-0.86328-0.69922-1.5625-1.5625-1.5625h-3.125c-0.10156 0-0.20312 0.007813-0.30469 0.03125l-0.6875-1.5938h8.6094l18.141 4.5352 7.6562 7.6562-6.0938 3.6562c-0.0625 0.039063-0.11719 0.078126-0.17188 0.11719zm4.1016 12.156c-1.7227 0-3.125-1.4023-3.125-3.125s1.4023-3.125 3.125-3.125 3.125 1.4023 3.125 3.125-1.4023 3.125-3.125 3.125zm42.121-17.191c0.023437 0 0.046875 0.003906 0.066406 0.003906h3.125c2.9297 0 5.0703 0.74219 6.4375 1.4414l-4.0859 2.3359c-0.40234 0.23047-0.68359 0.62891-0.76562 1.0859l-0.48438 2.7695v0.003907 0.003906l-0.35156 2.0234-4.9062-8.1719 0.96875-1.4922zm7.0547 9.9805c1.4414 0.80859 2.3867 2.3477 2.3867 4.0859 0 2.5859-2.1016 4.6875-4.6875 4.6875s-4.6875-2.1016-4.6875-4.6875c0-1.1172 0.38672-2.1641 1.0703-2.9883l2.2734 3.7891c0.28516 0.47656 0.79688 0.75781 1.3398 0.75781 0.09375 0 0.1875-0.007813 0.28516-0.023438 0.64062-0.11719 1.1406-0.625 1.2539-1.2656l0.76172-4.3555zm-2.3008 15.023c-6.0312 0-10.938-4.9062-10.938-10.938 0-3.3047 1.4688-6.3906 4.0312-8.4766l1.6328 2.7188c-1.5938 1.4688-2.5352 3.5586-2.5352 5.7578 0 4.3086 3.5039 7.8125 7.8125 7.8125s7.8125-3.5039 7.8125-7.8125c0-3.2734-2.0078-6.125-4.9531-7.2734l0.11719-0.66406 2.5938-1.4805c3.3203 1.9688 5.3711 5.5469 5.3711 9.4141 0 6.0312-4.9062 10.938-10.938 10.938z"/>
  <path d="m10.938 42.188h9.375c3.5859 0 5.4531 0.34375 7.4375 0.70312 2.3164 0.42188 4.7109 0.85938 9.75 0.85938h2.5234c2.5703 0 4.8477 1.543 5.8047 3.9297l1.1602 2.9023c0.24219 0.60938 0.83203 0.98438 1.4531 0.98438 0.19531 0 0.39062-0.035156 0.57812-0.10938 0.80078-0.32031 1.1914-1.2305 0.87109-2.0312l-1.1602-2.8984c-1.4297-3.5781-4.8477-5.8906-8.7031-5.8906h-2.5234c-4.7578 0-7.0117-0.41406-9.1914-0.80859-2.0312-0.37109-4.125-0.75391-7.9961-0.75391h-9.375c-0.86328 0-1.5625 0.69922-1.5625 1.5625s0.69922 1.5625 1.5625 1.5625z"/>
 </g>
</svg>